/* XPM */
static char *bitoz32[] = {
/* columns rows colors chars-per-pixel */
"32 32 81 1 ",
"  c #CE7E0B",
". c #CD840A",
"X c #CF890F",
"o c #CF8610",
"O c #CF8910",
"+ c #D18C14",
"@ c #D28D1C",
"# c #D29016",
"$ c #D4951B",
"% c #D6991F",
"& c #D48F25",
"* c #D49124",
"= c #D79C22",
"- c #D89F24",
"; c #D6952D",
": c #D6992B",
"> c #D99E2E",
", c #D79633",
"< c #D89634",
"1 c #D99E33",
"2 c #DA9F3A",
"3 c #D9A127",
"4 c #DAA42C",
"5 c #DCA82F",
"6 c #DAA432",
"7 c #DDAA35",
"8 c #DAA13C",
"9 c #DDAB3B",
"0 c #DB9F43",
"q c #DBA442",
"w c #DEAB43",
"e c #DDA64B",
"r c #DEAC4B",
"t c #DFB049",
"y c #DEAB51",
"u c #E0AF44",
"i c #E0AF4A",
"p c #E0B14B",
"a c #E0AE55",
"s c #E2B554",
"d c #E2B35B",
"f c #E4BA5D",
"g c #E3B665",
"h c #E6BD64",
"j c #E4B468",
"k c #E5BA6B",
"l c #E7BF75",
"z c #E8BE77",
"x c #E7C16B",
"c c #E8C26C",
"v c #E7C077",
"b c #E9C472",
"n c #EAC876",
"m c #E9C47C",
"M c #EBCA7B",
"N c #EAC582",
"B c #ECCB85",
"V c #ECCC8A",
"C c #EED085",
"Z c #EED18A",
"A c #F0D48F",
"S c #EECE91",
"D c #EFD293",
"F c #F0D595",
"G c #F1D49B",
"H c #F2D99A",
"J c #F2D7A2",
"K c #F3DBA4",
"L c #F4DEAC",
"P c #F6E2AC",
"I c #F6E3B3",
"U c #F8E7B6",
"Y c #F7E5B9",
"T c #F8E6BA",
"R c #F9E9BD",
"E c #FAECC4",
"W c #FBEEC9",
"Q c #FCF1CD",
"! c #FEF4D3",
"~ c #FFF7D9",
"^ c None",
/* pixels */
"^^^^^^^^^^^^........^^^^^^^^^^^^",
"^^^^^^^^^..yBPE~~EPBy..^^^^^^^^^",
"^^^^^^^..MEHbs99wsbFQQnX.^^^^^^^",
"^^^^^^.gRM77999999999MWQh.^^^^^^",
"^^^^^.mF557hnZHHHZnh777H~m.^^^^^",
"^^^^.VM34xAPRQ~~~QEPAc55M~V.^^^^",
"^^^.mM33MUEQ~QRRRQ~~EUC55M~m.^^^",
"^^.kH33CU~~QEPIUPKHP~QUA54F~k.^^",
"^^.E=-bE!HcU~~~~~~QHAW~Un43QQ.^^",
"^.mc=pRQF5f~RxFf~~~~EAQQIp=x~m.^",
"^.W$%CQW3xQ!h5t7xsC!~QF~EC==Q!.^",
"^yD%iWRpsP~~HtBuRx5h~~I~~Ut%Z~y^",
".Bf=lEWfb~~~RpD9~!3tKhBb~!k$s~B.",
".L6=BQntI~~~EtF9~K3s6L~ts~B$6~L.",
".W$$FQFfR~~Qh>t6h=ZH-~~F$QH##~W.",
".!#$HYgsI~~Qc6d>BwsB$E~w:~G@+~Q.",
".!##S!FqP~~~EqD<~~#@aaz0T!SOO~!.",
".W:OBES1K~~~P2N;~~aOSYGQ~Wm.*~W.",
".LyXf!YmmR~~E2S,~~&.S~~G~Wj.e~L.",
".BV.8ERg*S~!g@0&z< a~~JJ~Y0 m~V.",
"^yQ..m!J;;R!y < jjL~~EN~EN..W~y^",
"^.Qg.qYQN&;~~JWS~~~~EzW!Lq.a~Q.^",
"^.mQ..jE~l0J!~~~~~QGNW~Lk..Q~m.^",
"^^.QS..zI!~GILJKKGSG~WLNO.V~Q.^^",
"^^.g~k..lPR~~QYIIW~~RLm..g~~g.^^",
"^^^.m~g..eNKYQ!~~QYLNe..g~~m.^^^",
"^^^^.B~V. .qalVSVzaq...N~~B.^^^^",
"^^^^^.m~Eg . . o  .  dE~~m.^^^^^",
"^^^^^^.gQ~WNe&. .&eNE~~Qg.^^^^^^",
"^^^^^^^..mQ~~~~~~~~~~!m..^^^^^^^",
"^^^^^^^^^..yVLW!~WLNy..^^^^^^^^^",
"^^^^^^^^^^^^........^^^^^^^^^^^^"
};
