/* XPM */
static char *bitoz64[] = {
/* columns rows colors chars-per-pixel */
"64 64 149 2 ",
"   c #C45600",
".  c #C55F00",
"X  c #C76200",
"o  c #C96D00",
"O  c #C97400",
"+  c #CB7C00",
"@  c #CF7F08",
"#  c #CE7F14",
"$  c #CE8300",
"%  c #CF8800",
"&  c #CE830E",
"*  c #D08600",
"=  c #D18C00",
"-  c #D49300",
";  c #D69A00",
":  c #D89E00",
">  c #D5970E",
",  c #D69A0B",
"<  c #CD8415",
"1  c #CF8A15",
"2  c #CE851C",
"3  c #D08A17",
"4  c #D39214",
"5  c #D69B13",
"6  c #D89F13",
"7  c #D4941C",
"8  c #D59819",
"9  c #DAA200",
"0  c #DBA50F",
"q  c #DAA314",
"w  c #DAA31C",
"e  c #CE8622",
"r  c #CF8923",
"t  c #CF852A",
"y  c #CF8A29",
"u  c #D08523",
"i  c #D18C25",
"p  c #D0862E",
"a  c #D18D2B",
"s  c #D39427",
"d  c #D69924",
"f  c #D3922D",
"g  c #D79C2D",
"h  c #D89F2E",
"j  c #D18D34",
"k  c #D38E3D",
"l  c #D39333",
"z  c #D69B32",
"x  c #D3923E",
"c  c #D69A3B",
"v  c #D89D3E",
"b  c #DAA424",
"n  c #DAA42C",
"m  c #DCA92D",
"M  c #DAA433",
"N  c #DCA935",
"B  c #DAA43A",
"V  c #DDAA3C",
"C  c #D38F41",
"Z  c #D39543",
"A  c #D59A45",
"S  c #D89E43",
"D  c #D6954C",
"F  c #D69A4A",
"G  c #D89E4A",
"H  c #D59750",
"J  c #D69C55",
"K  c #D89F57",
"L  c #D79C58",
"P  c #DAA344",
"I  c #DEAC44",
"U  c #DAA44C",
"Y  c #DDAC4C",
"T  c #DFB04E",
"R  c #D7A054",
"E  c #DAA454",
"W  c #DDAC52",
"Q  c #D7A15C",
"!  c #D8A25B",
"~  c #DEAD5E",
"^  c #DFB156",
"/  c #E1B357",
"(  c #E1B45A",
")  c #D89F60",
"_  c #D9A463",
"`  c #DCAA65",
"'  c #DAA36A",
"]  c #DCAA6C",
"[  c #DFB165",
"{  c #DDAD74",
"}  c #DEAF7A",
"|  c #DEB176",
" . c #DFB27A",
".. c #E1B663",
"X. c #E3B866",
"o. c #E1B56C",
"O. c #E3BA6C",
"+. c #E1B673",
"@. c #E3BB73",
"#. c #E0B57D",
"$. c #E4BD7A",
"%. c #E6C27C",
"&. c #DEB583",
"*. c #E1B682",
"=. c #E2BA84",
"-. c #E4BD8B",
";. c #E5BF91",
":. c #E7C383",
">. c #E8C683",
",. c #E9C887",
"<. c #E6C18B",
"1. c #E8C68A",
"2. c #EACA8C",
"3. c #E6C393",
"4. c #E8C695",
"5. c #EBCC93",
"6. c #E7C698",
"7. c #E8C799",
"8. c #EACB9D",
"9. c #EDD095",
"0. c #EED39D",
"q. c #EBCDA2",
"w. c #EDD2A4",
"e. c #EED4AB",
"r. c #F1D6A5",
"t. c #F0D8A6",
"y. c #F1D6AB",
"u. c #F2DBAC",
"i. c #EFD6B0",
"p. c #F0D7B1",
"a. c #F2DCB3",
"s. c #F3DEB9",
"d. c #F4E0B4",
"f. c #F5E3BC",
"g. c #FDE5BC",
"h. c #FFE9BE",
"j. c #F7E6C2",
"k. c #F7E8C4",
"l. c #FAEAC4",
"z. c #FAEDCB",
"x. c #FFF0C7",
"c. c #FDF1CD",
"v. c #FEF4D5",
"b. c #FFFAD5",
"n. c #FFF7D9",
"m. c #FFFADC",
"M. c #FFFDE1",
"N. c #FFFFEA",
"B. c None",
/* pixels */
"B.B.B.B.B.B.B.B.B.B.B.B.B.B.B.B.B.B.B.B.B.B.B.B.B.B.R  .=.<.6.8.8.6.-.&.{ F B.B.B.B.B.B.B.B.B.B.B.B.B.B.B.B.B.B.B.B.B.B.B.B.B.B.",
"B.B.B.B.B.B.B.B.B.B.B.B.B.B.B.B.B.B.B.B.B.B.Q <.e.c.m.M.M.M.M.M.M.M.M.M.M.m.l.w.=.A B.B.B.B.B.B.B.B.B.B.B.B.B.B.B.B.B.B.B.B.B.B.",
"B.B.B.B.B.B.B.B.B.B.B.B.B.B.B.B.B.B.B.l -.g.m.M.m.m.m.n.m.v.v.n.v.v.n.n.n.m.m.M.M.m.a.#.B.B.B.B.B.B.B.B.B.B.B.B.B.B.B.B.B.B.B.B.",
"B.B.B.B.B.B.B.B.B.B.B.B.B.B.B.B.B.A 8.b.M.M.m.m.n.v.m.m.m.M.m.m.M.m.M.m.m.m.n.v.n.m.m.M.c.<.B.B.B.B.B.B.B.B.B.B.B.B.B.B.B.B.B.B.",
"B.B.B.B.B.B.B.B.B.B.B.B.B.B.B.B.6.m.m.m.n.n.m.m.m.m.b.l.f.u.t.t.t.t.u.f.l.v.m.m.m.n.v.m.m.m.c.=.B.B.B.B.B.B.B.B.B.B.B.B.B.B.B.B.",
"B.B.B.B.B.B.B.B.B.B.B.B.B.B. .c.M.m.n.n.m.m.n.l.t.%./ N 0 9 9 9 9 9 9 q N / %.t.k.m.m.m.n.m.M.m.g.! B.B.B.B.B.B.B.B.B.B.B.B.B.B.",
"B.B.B.B.B.B.B.B.B.B.B.B.B.8.M.m.v.v.m.m.c.t.O.m 9 q m V I I I T I I I I V m w 9 m O.u.c.m.m.n.m.M.m.=.B.B.B.B.B.B.B.B.B.B.B.B.B.",
"B.B.B.B.B.B.B.B.B.B.B.x x.m.m.n.n.m.v.0.Y 9 w V I I I V N b 0 9 9 0 b m V I I I V w 9 T 0.v.m.n.v.m.M.r.B.B.B.B.B.B.B.B.B.B.B.B.",
"B.B.B.B.B.B.B.B.B.B.Q b.m.v.n.m.m.u.T : m V V V m 9 9 m ^ @.>.,.2.>.@./ m 9 9 m V I V m 9 T d.m.m.v.m.M.h.1 B.B.B.B.B.B.B.B.B.B.",
"B.B.B.B.B.B.B.B.B.` m.m.m.v.m.c.$.; b V B N 9 9 / 9.f.c.v.v.c.z.c.v.v.c.c.g.9.( 9 9 V V V b : %.c.m.v.v.M.x.i B.B.B.B.B.B.B.B.B.",
"B.B.B.B.B.B.B.B.Q m.m.v.n.M.f.I : N N N : 9 :.f.n.z.d.9.2.9.9.9.9.5.5.5.0.d.z.v.l.%.9 9 V N V 9 Y f.m.m.v.M.x.* B.B.B.B.B.B.B.B.",
"B.B.B.B.B.B.B.x n.m.m.n.m.a.: q M M b : %.z.n.d.2.9.d.l.v.b.m.m.m.m.m.c.l.u.5.2.d.m.c.%.: b N N w 9 a.m.m.v.M.g.B.B.B.B.B.B.B.B.",
"B.B.B.B.B.B.B.x.M.n.b.m.u.; b M N : V f.n.u.>.u.c.m.m.m.m.n.n.v.n.b.n.m.m.m.m.v.u.%.u.b.f.V : N N m : u.m.m.v.M.8.B.B.B.B.B.B.B.",
"B.B.B.B.B.B.w.m.v.n.m.a.; h n M ; @.n.k.%.u.v.M.m.n.m.m.m.M.m.m.m.m.M.m.m.v.v.m.m.m.u.%.l.m.%.: N m m : a.M.v.m.M.=.B.B.B.B.B.B.",
"B.B.B.B.B. .M.n.n.m.f.: b h h ; 5.m.w.>.c.M.v.v.v.m.v.k.u.0.5.5.2.9.0.u.l.v.M.m.n.m.m.c.,.0.m.9.; N m h : f.m.v.m.m.Z B.B.B.B.B.",
"B.B.B.B.B.c.M.n.m.c.P , h M ; 8.m.2.0.M.m.v.m.m.m.c.2.9.u.g.z.z.c.z.f.u.9.2.0.z.m.m.n.m.m.r.2.m.8.: h m q I c.m.n.m.a.B.B.B.B.B.",
"B.B.B.B.6.M.m.v.m.$.; n h - 2.M.%.a.M.v.v.M.z.f.m.v.v.m.m.m.m.m.n.m.m.M.M.v.d.>.9.v.M.v.m.M.a.%.M.5.; M M - $.m.n.m.M. .B.B.B.B.",
"B.B.B.Z b.m.n.m.i.- g h ; @.m.1.u.M.n.2.c.8.9 d.m.v.m.m.n.n.n.m.m.n.n.n.n.n.M.m.s.%.d.M.v.v.M.a.,.M.@.; n M - u.m.v.M.h.B.B.B.B.",
"B.B.B.8.M.v.m.v.P , g 5 B v.w.w.M.m.d.^ 2.m d.m.v.m.v.z.c.n.v.z.c.n.n.n.n.n.n.n.m.v.2.0.M.n.v.M.0.0.v.B 5 h , P v.m.n.M.#.B.B.B.",
"B.B.l b.m.v.m.8.= g g - f.k.:.M.z.u.8.: X.>.t.v.n.m.a.9 ..m.t.; $.m.n.n.n.v.n.n.v.m.M.8.9.m.v.n.M.1.k.f.- g M - 8.m.v.M.g.B.B.B.",
"B.B.<.M.m.m.c.S > g - $.m.$.c.M.a.o.9.w Y %.l.m.n.M.d.; ( m.u.- @.m.n.m.m.m.m.n.m.v.n.M.8.0.M.v.m.c.$.m.@.- g 5 P c.m.m.m.` B.B.",
"B.B.g.M.v.m.t.= g d ; z.t.u.m.m.0.: 5.t.0.m.m.m.f.^ ^ m V ..T b I ....$.1.t.z.M.n.n.n.n.M.,.f.M.v.M.u.e.z.- g g - t.m.v.m.8.B.B.",
"B._ m.m.v.m.[ - g - $.v.%.M.f.d.f.= : Y a.n.v.m.j.%.O.w V %...6 Y :.O.: : : N r.m.n.m.v.m.v.%.c.m.n.n.$.v.$.= g - [ m.v.m.x.B.B.",
"B.<.M.v.m.k.- d g - j.i.t.N.q.$.u.5.u.c.m.m.n.n.m.M.d.- ( M.u.- $.M.M.a.b B n ; a.m.v.n.n.m.k.l.m.v.M.e.u.j.= g d - k.m.m.m.] B.",
"B.e.M.v.M.q.- z - Y v.1.c.M.t.; ,.a.%.j.m.n.n.n.n.m.u.- ^ m.t.- @.n.n.M.:.; B : $.m.v.M.m.c.m.m.M.n.m.c.:.v.U - g = 0.M.v.M.3.B.",
"B.c.m.v.m.+.- z - 4.z.1.m.m.k.b ; ; 0.m.n.n.n.n.n.M.u.- W m.w.- @.n.n.m.e.; B : X.m.v.9.^ I B o.a.m.n.m.1.z.4.% z -  .M.v.M.e.B.",
"R m.m.n.c.U - g - f.a.a.z.0.m.:.u.j.m.n.n.n.n.n.n.m.d.- W m.r.= O.m.v.m.u.- B - :.z.P - 5.j.f.o.= 4.m.m.i.a.f.% f - G c.n.m.l.B.",
" .M.m.m.k.- d d - z.8.l.v.P w.0.a.@.v.n.n.n.n.m.v.M.u.- W m.t.= @.n.v.M.8.- v - w.O.= w.M.m.M.n.~ * i.M.k.5.z.- 7 7 - k.m.m.b.B.",
"=.M.n.M.s.= g - P v.1.c.m.+.; W * a.m.v.m.n.n.n.n.M.u.= W m.w.* +.m.m.v.W 8 % +.a.- g z.m.v.v.M.5.$ ` m.c.<.c.A = s % s.m.n.m.! ",
"<.M.v.M.t.% g = [ c.<.m.M.k.S - i.M.b.n.n.n.n.n.v.m.u.= U m.w.* o.v.z.o.- - ~ v.8.% W v.n.n.n.m.w.% z z.m.<.c.] % f * t.M.n.m.] ",
"6.M.v.M.q.* l = #.c.1.m.f.M.4.k.m.u.m.m.n.n.v.m.s.- d 7 7 8 8 7 7 d = = 8 1.m.M.<.% E v.m.n.n.M.w.$ 7 j.M.<.c. .$ f + q.M.n.M. .",
"8.M.v.M.q.$ f % =.z.<.M. .1.9.k.U 4.m.n.m.n.n.m.l.q.=.= v w.#.= E q.7.v = P =.v.e.$ c z.n.n.b.m.6.+ F c.M.<.z.=.+ f + q.M.m.M.=.",
"6.M.v.M.8.$ f % =.z.<.M.z.% U P - v.m.n.n.n.n.n.n.N.a.$ E M.e.+ +.m.M.z.! = $ G y.c + y.M.n.M.v.K O 3.m.m.<.z.=.+ f + 8.M.v.M.&.",
"6.M.v.M.q.$ f $ #.z.<.m.m.f.l 4 j.c.v.n.n.m.n.n.n.m.u.$ G m.q.+ ] m.v.M.l.= f $ A 4.$ = s.n.c.} o ] v.n.m.<.z. .+ a + q.M.n.M. .",
"-.M.v.M.e.$ y % ` c.<.n.v.N.8.f.a.#.m.n.n.n.n.n.v.M.e.+ G m.w.+ ] m.m.v.m.#.+ l + -.s.D + j $ * 3.v.m.v.m.-.c._ $ y + w.M.n.M.` ",
"&.M.v.M.p.$ i % A c.<.v.8.8.w.8.= 8.M.n.n.n.n.n.n.m.e.+ G m.q.O ] m.v.v.M.w.+ u $ a v.n.j.p.f.c.M.n.n.m.v.-.c.Z $ e + s.m.m.m.R ",
"| m.m.m.j.% 1 1 % z.6.k.v.R $ % % z.n.n.n.n.n.m.v.M.e.+ G m.q.o ] m.n.n.M.e.+ u < * k.m.m.m.m.m.e.c.n.m.k.6.z.$ < < * k.m.m.v.B.",
"F m.m.m.b.Z $ i + s.a.e.N.v.q.f e.v.<.m.n.n.n.n.n.m.e.O F m.q.o ] n.n.v.M.7.O u + p c.m.n.n.n.n.#.n.n.M.e.i.s.+ r $ Z c.n.M.g.B.",
"B.l.m.v.m.{ $ y + ;.z.<.M.v.N.q.k.8.J m.n.n.n.n.n.m.e.O D m.q.X ' n.v.m.v.H + p o } m.n.n.n.M.p.7.M.v.M.-.z.;.O y + { m.v.M.w.B.",
"B.w.M.v.M.8.O y $ A b.=.v.z.q.e.=.x  .l.z.n.m.n.n.N.a.o D M.e.. { M.M.v.#.O p O @ k.m.n.n.n.m.*.z.m.m.z.=.v.Z + r O 8.M.n.M.-.B.",
"B.=.M.n.m.j.* < r O f.i.w.m.-.$ O O a.{ a.M.n.m.k.q.&.O k q.{ o D q.;.k X O o D j.m.n.n.v.M.p.;.M.v.M.w.e.j.O 2 < $ j.m.m.m.R B.",
"B.Z m.m.v.m._ + r +  .v. .m.M.k.e. .j.+ e.l.n.m.p.+ # # # @ # # # @ @ j H } e.n.m.n.n.n.m.n.} c.n.m.m. .v. .+ r + ) m.v.m.f.B.B.",
"B.B.a.m.v.M.q.+ r < + z.w.q.M.z.j.-.L + i._ z.m.n.n.q.. C n.7.  ' n.v.v.n.m.M.m.n.n.n.n.M.&.a.M.v.M.q.w.z.+ < e O q.M.v.M.3.B.B.",
"B.B.=.M.n.m.c.j $ r + | m.| v.v.-.x O H z.O i.M.v.M.a.# ) m.e.+ } n.n.n.n.n.n.n.n.n.n.M.6.7.M.v.M.z.| m.{ O e $ l v.m.m.m.J B.B.",
"B.B.B.c.m.n.M.6.O r 2 O s.j.&.M.M.n.v.w.3.+ 8.m.n.n.n.v.v.n.v.v.v.n.n.n.n.n.n.n.n.n.M.;.;.M.n.n.M.&.k.s.O 2 e O 6.m.v.M.t.B.B.B.",
"B.B.B.<.M.n.m.c.x $ 2 $ y n.8.8.M.z.w.#.+ . a.N.n.n.n.n.n.n.n.m.n.n.n.n.n.n.n.n.M.v.*.6.M.m.n.M.6.6.m.a $ < $ x v.m.m.m.` B.B.B.",
"B.B.B.B.v.m.n.M.e.O e 2 + ] M.*.i.m.q.*.#.q.#.i.M.m.n.n.n.n.n.n.n.n.n.n.n.n.m.m.i.{ p.M.n.v.M.e.&.M.] O 2 r O e.m.v.M.u.B.B.B.B.",
"B.B.B.B.&.M.n.n.m.| + e e o -.M.} i.N.M.m.M.c.3. .s.m.m.M.m.m.M.n.m.m.M.M.n.p.*.;.v.M.n.n.M.e.} M.-.O r r O  .m.v.m.m.! B.B.B.B.",
"B.B.B.B.B.h.M.v.m.c.k $ 2 2 O 3.M.&.8.m.m.v.m.M.k.p.M.i.q.j.k.z.z.k.s.e.3.*.7.k.M.m.v.m.M.q.&.M.6.O e < $ j c.m.v.M.7.B.B.B.B.B.",
"B.B.B.B.B.! m.m.n.m.f.+ & < e O -.m.8.#.v.M.v.v.M.m.m.k.q.6.-.-.-.-.6.e.j.n.M.m.v.n.M.c. .8.m.-.O r < & + f.M.v.m.c.B.B.B.B.B.B.",
"B.B.B.B.B.B.-.M.m.v.M.e.O < 1 e O ] v.j.{ w.n.M.n.n.n.m.M.M.m.m.m.m.M.M.m.n.v.m.M.n.w.{ k.m.' O r < < + i.M.v.m.m.` B.B.B.B.B.B.",
"B.B.B.B.B.B.B.y.M.v.v.M.e.+ & 2 e + y s.n.w. .w.z.m.M.m.n.v.n.v.n.n.v.n.m.M.M.z.q. .q.m.s.i + e < < O w.m.v.m.M.=.B.B.B.B.B.B.B.",
"B.B.B.B.B.B.B.B.h.M.n.n.m.i.$ + e 2 + O { z.n.e.=.-.e.k.v.m.m.M.m.m.m.c.k.e.-.=.e.v.k.{ O + 2 r $ + i.M.v.m.M.7.B.B.B.B.B.B.B.B.",
"B.B.B.B.B.B.B.B.1 z.M.v.v.M.s.j + e 2 2 O O } f.v.z.e.6.-.=.-.<.-.-.=.-.3.i.z.v.j.} + + e 2 e O j s.M.v.v.M.u.B.B.B.B.B.B.B.B.B.",
"B.B.B.B.B.B.B.B.B.i x.M.v.v.M.z.{ o $ e 2 < O O Z ;.s.z.v.z.v.k.z.z.c.v.z.s.-.D o O < e e + O { z.M.v.m.M.e.B.B.B.B.B.B.B.B.B.B.",
"B.B.B.B.B.B.B.B.B.B.% f.M.m.m.m.m.e.x o + e e e O O o + C ) } &.&.&.) C + o o + e e e + o j e.m.m.v.m.M.6.B.B.B.B.B.B.B.B.B.B.B.",
"B.B.B.B.B.B.B.B.B.B.B.B.8.M.M.v.v.M.v.3.j O O # e t e # + + O o o O O O # e t e < O o j 7.v.M.m.m.M.m.=.B.B.B.B.B.B.B.B.B.B.B.B.",
"B.B.B.B.B.B.B.B.B.B.B.B.B.$.m.M.m.v.m.m.c.q.) + o O + < e t t t p t t u # + O o + L q.c.M.m.v.m.m.x.Q B.B.B.B.B.B.B.B.B.B.B.B.B.",
"B.B.B.B.B.B.B.B.B.B.B.B.B.B.x u.m.M.m.v.m.M.n.j.8.{ C + o o o o o o o O + C { 7.j.m.M.m.v.n.M.m.8.B.B.B.B.B.B.B.B.B.B.B.B.B.B.B.",
"B.B.B.B.B.B.B.B.B.B.B.B.B.B.B.B. .h.M.M.m.v.n.m.M.m.c.k.s.w.q.8.8.q.q.s.k.c.m.M.m.n.v.m.M.m.e.! B.B.B.B.B.B.B.B.B.B.B.B.B.B.B.B.",
"B.B.B.B.B.B.B.B.B.B.B.B.B.B.B.B.B.B. .f.m.M.m.m.v.v.m.m.m.m.m.M.m.m.m.m.m.m.n.n.m.m.M.m.t._ B.B.B.B.B.B.B.B.B.B.B.B.B.B.B.B.B.B.",
"B.B.B.B.B.B.B.B.B.B.B.B.B.B.B.B.B.B.B.B.` 7.c.m.M.M.m.m.m.m.m.v.m.n.m.m.m.M.M.M.m.g.3.G B.B.B.B.B.B.B.B.B.B.B.B.B.B.B.B.B.B.B.B.",
"B.B.B.B.B.B.B.B.B.B.B.B.B.B.B.B.B.B.B.B.B.B.B._ 3.e.l.v.m.m.M.M.M.M.m.m.v.l.q.=.K B.B.B.B.B.B.B.B.B.B.B.B.B.B.B.B.B.B.B.B.B.B.B.",
"B.B.B.B.B.B.B.B.B.B.B.B.B.B.B.B.B.B.B.B.B.B.B.B.B.B.B.B.! ]  .&.&. .` K B.B.B.B.B.B.B.B.B.B.B.B.B.B.B.B.B.B.B.B.B.B.B.B.B.B.B.B."
};
